<svg width="478" height="170" viewBox="0 0 478 170" fill="none" xmlns="http://www.w3.org/2000/svg">
<path d="M396.881 66.595H191.344C190.335 66.5939 189.368 66.1926 188.654 65.4791C187.941 64.7656 187.539 63.7981 187.538 62.789V11.806C187.539 10.797 187.941 9.82969 188.654 9.11621C189.368 8.40273 190.335 8.00132 191.344 8H396.881C397.89 8.00132 398.857 8.40273 399.571 9.11621C400.284 9.82969 400.686 10.797 400.687 11.806V62.786C400.686 63.795 400.284 64.7623 399.571 65.4758C398.857 66.1893 397.89 66.5907 396.881 66.592V66.595ZM191.344 9.521C190.739 9.52153 190.158 9.76233 189.73 10.1906C189.301 10.6188 189.061 11.1994 189.06 11.805V62.786C189.061 63.3916 189.301 63.9722 189.73 64.4005C190.158 64.8287 190.739 65.0695 191.344 65.07H396.881C397.487 65.0695 398.067 64.8287 398.496 64.4005C398.924 63.9722 399.165 63.3916 399.165 62.786V11.805C399.165 11.1994 398.924 10.6188 398.496 10.1906C398.067 9.76233 397.487 9.52153 396.881 9.521H191.344Z" fill="#E6E6E6"/>
<path d="M254.909 26.36C254.211 26.3736 253.546 26.6602 253.058 27.1584C252.569 27.6567 252.295 28.3267 252.295 29.0245C252.295 29.7224 252.569 30.3924 253.058 30.8907C253.546 31.3889 254.211 31.6755 254.909 31.6891H380.509C381.211 31.7087 381.892 31.4503 382.405 30.9702C382.918 30.4901 383.22 29.827 383.246 29.1251C383.273 28.4232 383.021 27.7393 382.546 27.2221C382.071 26.7049 381.41 26.3961 380.709 26.363H380.592H254.909V26.36Z" fill="#E6E6E6"/>
<path d="M254.909 42.3441C254.202 42.3441 253.525 42.6248 253.025 43.1245C252.525 43.6241 252.245 44.3019 252.245 45.0085C252.245 45.7152 252.525 46.3929 253.025 46.8926C253.525 47.3923 254.202 47.673 254.909 47.673H380.509C381.211 47.6926 381.893 47.4343 382.405 46.9542C382.918 46.474 383.22 45.8109 383.247 45.1091C383.273 44.4072 383.021 43.7233 382.546 43.2061C382.071 42.6889 381.411 42.3801 380.709 42.347H380.592H254.909V42.3441Z" fill="#E6E6E6"/>
<path d="M396.881 151.575H191.344C190.335 151.574 189.368 151.173 188.654 150.459C187.941 149.746 187.539 148.778 187.538 147.769V96.786C187.539 95.777 187.941 94.8097 188.654 94.0963C189.368 93.3828 190.335 92.9813 191.344 92.98H396.881C397.89 92.9813 398.857 93.3828 399.571 94.0963C400.284 94.8097 400.686 95.777 400.687 96.786V147.771C400.684 148.779 400.282 149.745 399.569 150.457C398.855 151.169 397.889 151.57 396.881 151.571V151.575ZM191.344 94.502C190.739 94.5025 190.158 94.7434 189.73 95.1716C189.301 95.5998 189.061 96.1804 189.06 96.786V147.771C189.061 148.377 189.301 148.957 189.73 149.385C190.158 149.814 190.739 150.054 191.344 150.055H396.881C397.487 150.054 398.067 149.814 398.496 149.385C398.924 148.957 399.165 148.377 399.165 147.771V96.786C399.165 96.1804 398.924 95.5998 398.496 95.1716C398.067 94.7434 397.487 94.5025 396.881 94.502H191.344Z" fill="#E6E6E6"/>
<path d="M254.909 111.616C254.202 111.616 253.525 111.897 253.025 112.396C252.525 112.896 252.245 113.574 252.245 114.281C252.245 114.987 252.525 115.665 253.025 116.165C253.525 116.664 254.202 116.945 254.909 116.945H380.509C380.861 116.954 381.212 116.894 381.541 116.767C381.869 116.64 382.169 116.449 382.424 116.206C382.678 115.962 382.882 115.67 383.023 115.347C383.164 115.024 383.239 114.677 383.245 114.324C383.251 113.972 383.187 113.622 383.056 113.295C382.926 112.968 382.732 112.669 382.486 112.418C382.239 112.166 381.945 111.965 381.621 111.828C381.297 111.69 380.948 111.618 380.596 111.616H254.909Z" fill="#E6E6E6"/>
<path d="M254.909 127.604C254.202 127.604 253.525 127.885 253.025 128.384C252.525 128.884 252.245 129.562 252.245 130.268C252.245 130.975 252.525 131.653 253.025 132.153C253.525 132.652 254.202 132.933 254.909 132.933H380.509C380.861 132.942 381.212 132.882 381.541 132.755C381.869 132.628 382.169 132.437 382.424 132.194C382.678 131.95 382.882 131.658 383.023 131.335C383.164 131.012 383.239 130.665 383.245 130.312C383.251 129.96 383.187 129.61 383.056 129.283C382.926 128.956 382.732 128.657 382.486 128.406C382.239 128.154 381.945 127.953 381.621 127.816C381.297 127.678 380.948 127.606 380.596 127.604H254.909Z" fill="#E6E6E6"/>
<path d="M474.9 131.328C471.745 132.437 468.357 132.715 465.063 132.135C461.769 131.554 458.68 130.136 456.094 128.015C449.507 122.487 447.442 113.379 445.762 104.945L440.792 80L451.197 87.165C458.68 92.317 466.331 97.635 471.513 105.098C476.695 112.561 478.956 122.749 474.793 130.824" fill="#CBE8D4"/>
<path d="M473.293 163.265C474.603 153.723 475.95 144.059 475.031 134.416C474.215 125.851 471.602 117.486 466.282 110.627C463.458 106.993 460.022 103.88 456.129 101.427C455.114 100.786 454.179 102.395 455.19 103.033C461.927 107.291 467.138 113.579 470.071 120.989C473.311 129.23 473.831 138.213 473.271 146.966C472.933 152.26 472.218 157.519 471.497 162.766C471.44 163.004 471.476 163.254 471.596 163.466C471.717 163.678 471.914 163.837 472.147 163.91C472.385 163.974 472.638 163.942 472.852 163.82C473.066 163.698 473.224 163.497 473.291 163.26L473.293 163.265Z" fill="#B3D1B9"/>
<path d="M463.866 147.955C462.513 150.012 460.653 151.685 458.465 152.815C456.277 153.944 453.835 154.49 451.375 154.402C445.052 154.102 439.78 149.689 435.035 145.502L421 133.102L430.289 132.658C436.969 132.338 443.822 132.04 450.189 134.1C456.556 136.16 462.42 141.118 463.583 147.7" fill="#CBE8D4"/>
<path d="M476.994 168.75C470.694 157.594 463.376 145.195 450.309 141.232C446.676 140.134 442.866 139.74 439.085 140.073C437.893 140.173 438.191 142.013 439.385 141.91C445.723 141.384 452.048 143.057 457.297 146.649C462.348 150.087 466.28 154.866 469.608 159.935C471.647 163.035 473.473 166.276 475.299 169.508C475.879 170.54 477.585 169.795 476.994 168.75Z" fill="#B3D1B9"/>
<path d="M216.986 52.97C225.815 52.97 232.972 45.8129 232.972 36.984C232.972 28.1552 225.815 20.998 216.986 20.998C208.157 20.998 201 28.1552 201 36.984C201 45.8129 208.157 52.97 216.986 52.97Z" fill="#F8D385"/>
<path d="M209.333 33.998C209.149 33.998 209 35.191 209 36.662C209 38.133 209.149 39.327 209.333 39.327H225.052C225.236 39.351 225.388 38.178 225.391 36.707C225.493 35.7911 225.381 34.8641 225.063 33.9991H209.333V33.998Z" fill="white"/>
<path d="M216.986 138.263C225.815 138.263 232.972 131.106 232.972 122.277C232.972 113.448 225.815 106.291 216.986 106.291C208.157 106.291 201 113.448 201 122.277C201 131.106 208.157 138.263 216.986 138.263Z" fill="#F8D385"/>
<path d="M209.333 119.291C209.149 119.291 209 120.484 209 121.955C209 123.426 209.149 124.62 209.333 124.62H225.052C225.236 124.644 225.388 123.471 225.391 122C225.493 121.084 225.381 120.157 225.063 119.292L209.333 119.291Z" fill="white"/>
<path d="M79.565 159.13C123.508 159.13 159.13 123.508 159.13 79.565C159.13 35.6225 123.508 0 79.565 0C35.6225 0 0 35.6225 0 79.565C0 123.508 35.6225 159.13 79.565 159.13Z" fill="#93B9F8"/>
<path d="M82.3953 54.3809H75.8037V88.9869H82.3953V54.3809Z" fill="white"/>
<circle cx="79.5115" cy="101.758" r="3.70779" fill="white"/>
</svg>
